ffmpeg version 3.4.8-0ubuntu0.2 Copyright (c) 2000-2020 the FFmpeg developers
  built with gcc 7 (Ubuntu 7.5.0-3ubuntu1~18.04)
  configuration: --prefix=/usr --extra-version=0ubuntu0.2 --toolchain=hardened --libdir=/usr/lib/x86_64-linux-gnu --incdir=/usr/include/x86_64-linux-gnu --enable-gpl --disable-stripping --enable-avresample --enable-avisynth --enable-gnutls --enable-ladspa --enable-libass --enable-libbluray --enable-libbs2b --enable-libcaca --enable-libcdio --enable-libflite --enable-libfontconfig --enable-libfreetype --enable-libfribidi --enable-libgme --enable-libgsm --enable-libmp3lame --enable-libmysofa --enable-libopenjpeg --enable-libopenmpt --enable-libopus --enable-libpulse --enable-librubberband --enable-librsvg --enable-libshine --enable-libsnappy --enable-libsoxr --enable-libspeex --enable-libssh --enable-libtheora --enable-libtwolame --enable-libvorbis --enable-libvpx --enable-libwavpack --enable-libwebp --enable-libx265 --enable-libxml2 --enable-libxvid --enable-libzmq --enable-libzvbi --enable-omx --enable-openal --enable-opengl --enable-sdl2 --enable-libdc1394 --enable-libdrm --enable-libiec61883 --enable-chromaprint --enable-frei0r --enable-libopencv --enable-libx264 --enable-shared
  libavutil      55. 78.100 / 55. 78.100
  libavcodec     57.107.100 / 57.107.100
  libavformat    57. 83.100 / 57. 83.100
  libavdevice    57. 10.100 / 57. 10.100
  libavfilter     6.107.100 /  6.107.100
  libavresample   3.  7.  0 /  3.  7.  0
  libswscale      4.  8.100 /  4.  8.100
  libswresample   2.  9.100 /  2.  9.100
  libpostproc    54.  7.100 / 54.  7.100
[rawvideo @ 0x55c5d0a63a20] Estimating duration from bitrate, this may be inaccurate
Input #0, rawvideo, from '../../SVC-Encoder-20220109T061506Z-001/SVC-Encoder/Dataset/RollerCoaster/ERP_8x8/tile_yuv/Tile_48_480x240.yuv':
  Duration: 00:00:10.00, start: 0.000000, bitrate: 41472 kb/s
    Stream #0:0: Video: rawvideo (I420 / 0x30323449), yuv420p, 480x240, 41472 kb/s, 30 tbr, 30 tbn, 30 tbc
Stream mapping:
  Stream #0:0 -> #0:0 (rawvideo (native) -> h264 (libx264))
Press [q] to stop, [?] for help
[libx264 @ 0x55c5d0a70c60] using cpu capabilities: MMX2 SSE2Fast LZCNT SSSE3 SSE4.2 AVX
[libx264 @ 0x55c5d0a70c60] profile High, level 2.1
Output #0, rawvideo, to 'RollerCoaster_Tile_48_480x240_x264_QP_24.h264':
  Metadata:
    encoder         : Lavf57.83.100
    Stream #0:0: Video: h264 (libx264), yuv420p, 480x240, q=-1--1, 30 fps, 30 tbn, 30 tbc
    Metadata:
      encoder         : Lavc57.107.100 libx264
    Side data:
      cpb: bitrate max/min/avg: 0/0/0 buffer size: 0 vbv_delay: -1
frame=  174 fps=0.0 q=30.0 PSNR=Y:nan U:nan V:nan *:nan size=      71kB time=00:00:04.36 bitrate= 133.1kbits/s speed=8.73x    frame=  300 fps=0.0 q=30.0 LPSNR=Y:inf U:inf V:inf *:inf size=     152kB time=00:00:09.93 bitrate= 125.4kbits/s speed=10.6x    
video:152kB audio:0kB subtitle:0kB other streams:0kB global headers:0kB muxing overhead: 0.000000%
[libx264 @ 0x55c5d0a70c60] frame I:2     Avg QP:20.75  size: 13581  PSNR Mean Y:47.35 U:49.83 V:48.66 Avg:47.88 Global:47.82
[libx264 @ 0x55c5d0a70c60] frame P:76    Avg QP:22.33  size:  1174  PSNR Mean Y:45.13 U:49.23 V:48.27 Avg:46.03 Global:45.99
[libx264 @ 0x55c5d0a70c60] frame B:222   Avg QP:29.38  size:   177  PSNR Mean Y:44.82 U:49.07 V:48.10 Avg:45.74 Global:45.70
[libx264 @ 0x55c5d0a70c60] consecutive B-frames:  0.7%  1.3%  2.0% 96.0%
[libx264 @ 0x55c5d0a70c60] mb I  I16..4: 11.4% 70.3% 18.2%
[libx264 @ 0x55c5d0a70c60] mb P  I16..4:  0.3%  0.1%  0.0%  P16..4: 43.2% 13.0%  4.9%  0.0%  0.0%    skip:38.5%
[libx264 @ 0x55c5d0a70c60] mb B  I16..4:  0.0%  0.0%  0.0%  B16..8: 30.3%  1.2%  0.0%  direct: 0.0%  skip:68.4%  L0:43.1% L1:56.0% BI: 0.9%
[libx264 @ 0x55c5d0a70c60] 8x8 transform intra:63.8% inter:76.0%
[libx264 @ 0x55c5d0a70c60] coded y,uvDC,uvAC intra: 74.4% 86.9% 55.4% inter: 4.8% 6.1% 0.1%
[libx264 @ 0x55c5d0a70c60] i16 v,h,dc,p:  7% 55%  9% 29%
[libx264 @ 0x55c5d0a70c60] i8 v,h,dc,ddl,ddr,vr,hd,vl,hu:  7% 44%  9%  4%  3%  3%  8%  3% 19%
[libx264 @ 0x55c5d0a70c60] i4 v,h,dc,ddl,ddr,vr,hd,vl,hu:  9% 37%  8%  6%  6%  5% 10%  5% 15%
[libx264 @ 0x55c5d0a70c60] i8c dc,h,v,p: 30% 50%  6% 14%
[libx264 @ 0x55c5d0a70c60] Weighted P-Frames: Y:0.0% UV:0.0%
[libx264 @ 0x55c5d0a70c60] ref P L0: 61.5% 14.1% 19.1%  5.3%
[libx264 @ 0x55c5d0a70c60] ref B L0: 80.5% 16.4%  3.1%
[libx264 @ 0x55c5d0a70c60] ref B L1: 84.8% 15.2%
[libx264 @ 0x55c5d0a70c60] PSNR Mean Y:44.917 U:49.115 V:48.150 Avg:45.832 Global:45.785 kb/s:124.54
